<svg xmlns="http://www.w3.org/2000/svg" width="108.789" height="21.001"><path fill="#FFF" d="M2.409 20.668h3.058V8.707h3.77V6.214h-3.77v-.836c0-1.849.96-2.786 2.852-2.786h1.117V0H8.021C4.349 0 2.409 1.928 2.409 5.576v.638H0v2.493h2.409v11.961zM17.706 5.885c-3.829 0-6.303 2.474-6.303 6.303v2.504c0 3.832 2.474 6.31 6.303 6.31 3.831 0 6.306-2.478 6.306-6.31v-2.504c-.001-3.83-2.476-6.303-6.306-6.303zm0 12.519c-1.953 0-3.216-1.354-3.216-3.447v-3.032c0-2.096 1.263-3.448 3.216-3.448 1.956 0 3.219 1.352 3.219 3.448v3.032c-.001 2.093-1.264 3.447-3.219 3.447zM34.169 5.885c-1.61 0-3.273.349-4.146 1.747l-.276-1.418h-2.543v14.454h3.087v-8.411c0-2.138 1.406-3.517 3.579-3.517.38 0 .781.059 1.082.112V5.954c-.262-.069-.548-.069-.783-.069zm20.199.016a3.947 3.947 0 00-.383-.017h-.056c-1.61 0-3.178.165-4.556 1.816a5.852 5.852 0 00-.327.424c-.844-1.388-2.227-2.148-4.044-2.224a3.97 3.97 0 00-.209-.013c-.033 0-.062-.003-.094-.003h-.134c-1.608 0-3.271.349-4.145 1.747l-.278-1.418H37.6v14.454h3.087v-8.743c0-1.991 1.309-3.382 3.183-3.382 1.812 0 2.985 1.299 2.985 3.312v8.812h3.087V11.82c.04-1.931 1.349-3.279 3.186-3.279 1.832 0 3.015 1.299 3.015 3.312v8.812H59.2v-8.944c0-3.497-1.8-5.642-4.832-5.82zm18.377.313h-.026l-.279 1.418c-.873-1.398-2.535-1.747-4.146-1.747h-.098c-.041 0-.078.003-.117.003-.064 0-.125.003-.191.01-3.223.135-5.14 2.359-5.14 6.027v3.032c0 3.675 1.927 5.904 5.161 6.029a.14.14 0 00.042.004c.082 0 .161.01.245.01.021 0 .041-.003.062-.003h.036c1.61 0 3.272-.353 4.146-1.747l.278 1.418h2.541V6.214h-2.514zm-6.908 8.809v-3.168c0-2.014 1.211-3.312 3.084-3.312 1.935 0 3.283 1.417 3.283 3.45v2.864c0 2.051-1.349 3.48-3.283 3.48-1.873.002-3.084-1.301-3.084-3.314zm12.238-6.316h2.413v6.385c0 3.648 1.939 5.576 5.609 5.576h1.414v-2.596h-1.113c-1.895 0-2.854-.936-2.854-2.783V8.707h3.771V6.214h-3.771V1.951l-3.056.888v3.375h-2.413v2.493zm19.03 11.961h11.684v-2.493h-7.943l7.78-10.155V6.214H97.37V8.71h7.515l-7.777 10.151v1.807h-.003zM90.859 6.214h2.897v2.888h-2.897zm0 5.779h2.897v2.892h-2.897zm0 5.782h2.897v2.893h-2.897z"/></svg>